<svg width="19" height="16" viewBox="0 0 19 16" fill="none" xmlns="http://www.w3.org/2000/svg">
<path d="M9.5 15.3729C9.39102 15.3729 9.28809 15.3547 9.19121 15.3184C9.10645 15.2699 9.02773 15.2154 8.95508 15.1549L2.39785 8.59766C1.96191 8.14961 1.6168 7.63496 1.3625 7.05371C1.1082 6.46035 0.981055 5.83066 0.981055 5.16465C0.981055 4.48652 1.1082 3.85684 1.3625 3.27559C1.6168 2.68223 1.96191 2.16758 2.39785 1.73164C2.83379 1.28359 3.34844 0.932422 3.9418 0.678125C4.53516 0.423828 5.16484 0.296679 5.83086 0.296679C6.49687 0.296679 7.12656 0.423828 7.71992 0.678125C8.31328 0.932422 8.82793 1.28359 9.26387 1.73164L9.5 1.96777L9.73613 1.71348C10.1721 1.27754 10.6807 0.932422 11.2619 0.678125C11.8553 0.423828 12.485 0.296679 13.151 0.296679C13.1631 0.296679 13.1691 0.296679 13.1691 0.296679C13.1813 0.296679 13.1873 0.296679 13.1873 0.296679C13.8533 0.296679 14.477 0.423828 15.0582 0.678125C15.6516 0.932422 16.1662 1.28359 16.6021 1.73164C17.0381 2.16758 17.3832 2.68223 17.6375 3.27559C17.8918 3.85684 18.0189 4.48652 18.0189 5.16465C18.0189 5.83066 17.8918 6.46035 17.6375 7.05371C17.3832 7.63496 17.0381 8.14961 16.6021 8.59766L10.0449 15.1549C9.97227 15.2154 9.8875 15.2699 9.79063 15.3184C9.70586 15.3547 9.60898 15.3729 9.5 15.3729ZM5.83086 1.85879C4.92266 1.85879 4.1416 2.17969 3.4877 2.82148C2.8459 3.46328 2.525 4.24434 2.525 5.16465C2.525 5.6127 2.60977 6.04258 2.7793 6.4543C2.96094 6.85391 3.19707 7.19902 3.4877 7.48965L9.5 13.502L15.5123 7.48965C15.8029 7.19902 16.033 6.85391 16.2025 6.4543C16.3842 6.04258 16.475 5.6127 16.475 5.16465C16.475 4.70449 16.3842 4.27461 16.2025 3.875C16.033 3.47539 15.8029 3.12422 15.5123 2.82148C15.2096 2.51875 14.8584 2.28262 14.4588 2.11309C14.0592 1.94355 13.6354 1.85879 13.1873 1.85879C13.1752 1.85879 13.1691 1.85879 13.1691 1.85879C12.709 1.85879 12.2791 1.94355 11.8795 2.11309C11.4799 2.28262 11.1348 2.51875 10.8441 2.82148H10.826L10.0449 3.60254C9.97227 3.6752 9.8875 3.73574 9.79063 3.78418C9.70586 3.82051 9.60898 3.83867 9.5 3.83867C9.39102 3.83867 9.28809 3.82051 9.19121 3.78418C9.10645 3.73574 9.02773 3.6752 8.95508 3.60254L8.17402 2.82148C7.87129 2.51875 7.52012 2.28262 7.12051 2.11309C6.7209 1.94355 6.29102 1.85879 5.83086 1.85879Z" fill="#6576FF"/>
</svg>
