<svg width="15" height="15" viewBox="0 0 15 15" fill="none" xmlns="http://www.w3.org/2000/svg">
<path d="M14.982 5.87254C14.9377 5.73829 14.8222 5.63854 14.6812 5.61754H14.679L10.2097 4.96429L8.22375 0.941293C8.1825 0.707293 8.03625 0.514543 7.836 0.411043L7.83225 0.408793C7.7355 0.360043 7.6215 0.331543 7.50075 0.331543C7.2075 0.331543 6.954 0.499543 6.83025 0.744793L6.828 0.749293L4.91625 4.62154L0.641998 5.24629C0.276748 5.30104 0.000747681 5.61229 0.000747681 5.98879C0.000747681 6.19954 0.0877477 6.38929 0.227248 6.52579L3.32025 9.53854L2.5905 13.7933C2.58375 13.8315 2.58 13.875 2.58 13.92C2.58 14.334 2.916 14.67 3.33 14.67C3.4575 14.67 3.57825 14.6378 3.68325 14.5815L3.6795 14.5838L7.851 12.39C7.9245 12.348 7.98675 12.2963 8.03925 12.2363L8.04 12.2355L11.8732 14.2515C11.9235 14.2785 11.9842 14.2943 12.048 14.2943C12.255 14.2943 12.423 14.1263 12.423 13.9193C12.423 13.8968 12.4207 13.875 12.417 13.854V13.8563L11.6535 9.40654L14.8867 6.25654C14.9565 6.18829 15 6.09304 15 5.98804C15 5.94679 14.9932 5.90704 14.9812 5.87029L14.982 5.87329V5.87254ZM10.9882 9.00679C10.9177 9.07504 10.8742 9.17104 10.8742 9.27604C10.8742 9.29779 10.8765 9.31954 10.8795 9.34054V9.33829L11.5477 13.233L8.19 11.4668L7.82325 11.0078L7.49925 2.77429L7.68375 1.55254L9.624 5.47129C9.678 5.58004 9.7815 5.65804 9.90375 5.67604H9.906L13.8187 6.24754L10.9882 9.00679Z" fill="#FFD200"/>
</svg>
