<svg width="16" height="15" viewBox="0 0 16 15" fill="none" xmlns="http://www.w3.org/2000/svg">
<path d="M12.1715 14.6692C12.044 14.6692 11.9233 14.637 11.8183 14.5815L11.822 14.5837L8 12.573L4.178 14.5837C4.07675 14.6377 3.95675 14.67 3.8285 14.67C3.4145 14.67 3.0785 14.334 3.0785 13.92C3.0785 13.875 3.08225 13.8315 3.08975 13.7887L3.089 13.7932L3.81875 9.53849L0.725752 6.52573C0.586252 6.38923 0.499252 6.19948 0.499252 5.98873C0.499252 5.61298 0.776002 5.30098 1.13675 5.24698L1.14125 5.24623L5.4155 4.62148L7.32725 0.749234C7.46525 0.517484 7.715 0.365234 8 0.365234C8.285 0.365234 8.534 0.517484 8.6705 0.745484L8.67275 0.749234L10.5845 4.62223L14.8588 5.24698C15.224 5.30173 15.5 5.61298 15.5 5.98948C15.5 6.20023 15.413 6.38998 15.2735 6.52648L12.1805 9.53923L12.9103 13.794C12.917 13.8322 12.9208 13.8765 12.9208 13.9207C12.9208 14.3347 12.5855 14.6692 12.1715 14.6692ZM8 10.9755C8.1275 10.9755 8.24825 11.007 8.35325 11.0632L8.3495 11.061L11.1755 12.5475L10.6363 9.40198C10.6295 9.36373 10.6258 9.31948 10.6258 9.27523C10.6258 9.06523 10.712 8.87473 10.8515 8.73823L13.139 6.51073L9.97775 6.04873C9.72875 6.01123 9.52325 5.85673 9.416 5.64298L9.41375 5.63848L8 2.77498L6.58625 5.63848C6.47675 5.85598 6.27125 6.01123 6.02675 6.04798L6.02225 6.04873L2.861 6.51073L5.1485 8.73823C5.288 8.87473 5.375 9.06448 5.375 9.27523C5.375 9.32023 5.37125 9.36448 5.36375 9.40648L5.3645 9.40198L4.82525 12.5475L7.65125 11.061C7.7525 11.007 7.8725 10.9755 8 10.9755Z" fill="#FFD200"/>
</svg>
