<svg width="16" height="15" viewBox="0 0 16 15" fill="none" xmlns="http://www.w3.org/2000/svg">
<path d="M15.4633 5.75627C15.374 5.48702 15.1438 5.28827 14.8625 5.24627L14.8588 5.24552L10.5845 4.62077L8.67275 0.74777C8.53475 0.51602 8.285 0.36377 8 0.36377C7.715 0.36377 7.466 0.51602 7.3295 0.74402L7.32725 0.74777L5.4155 4.62077L1.14125 5.24552C0.776 5.30027 0.5 5.61152 0.5 5.98802C0.5 6.19877 0.587 6.38852 0.7265 6.52502L3.8195 9.53777L3.08975 13.7925C3.083 13.8308 3.07925 13.8743 3.07925 13.9193C3.07925 14.3333 3.41525 14.6693 3.82925 14.6693C3.95675 14.6693 4.0775 14.637 4.1825 14.5808L4.17875 14.583L8.00075 12.5723L11.8228 14.583C11.924 14.637 12.044 14.6693 12.1723 14.6693C12.5863 14.6693 12.9223 14.3333 12.9223 13.9193C12.9223 13.8743 12.9185 13.8308 12.911 13.788L12.9118 13.7925L12.182 9.53777L15.275 6.52502C15.4145 6.38852 15.5015 6.19877 15.5015 5.98802C15.5015 5.90552 15.488 5.82527 15.4633 5.75102L15.4648 5.75627H15.4633Z" fill="#FFD200"/>
</svg>
